HIERARCHY
ROOT root
{
	OFFSET	0	13.1	24.9
	CHANNELS 6  Xposition Yposition Zposition Xrotation Yrotation Zrotation
	JOINT spine_1
	{
		OFFSET	0	9.99999	0
		CHANNELS 3  Xrotation Yrotation Zrotation
		JOINT spine_2
		{
			OFFSET	0	112	-10
			CHANNELS 3  Xrotation Yrotation Zrotation
			JOINT spine_3
			{
				OFFSET	0	206.5	19.3
				CHANNELS 3  Xrotation Yrotation Zrotation
				JOINT spine_4
				{
					OFFSET	0	110.4	14.6
					CHANNELS 3  Xrotation Yrotation Zrotation
					JOINT neck_1
					{
						OFFSET	0	71.8	-50.3
						CHANNELS 3  Xrotation Yrotation Zrotation
						JOINT neck_2
						{
							OFFSET	0	86.2	-25.8
							CHANNELS 3  Xrotation Yrotation Zrotation
							JOINT head_ee
							{
								OFFSET	0	179.8	-8.7
								CHANNELS 3  Xrotation Yrotation Zrotation
								End Site
								{
									OFFSET	1	0	0
								}
							}
						}
					}
					JOINT left_clavicle
					{
						OFFSET	-43.2	22.4	-70.8
						CHANNELS 3  Xrotation Yrotation Zrotation
						JOINT left_shoulder
						{
							OFFSET	-93.9	-5.79999	48.7
							CHANNELS 3  Xrotation Yrotation Zrotation
							JOINT left_elbow
							{
								OFFSET	-291.4	-30.8	15.2
								CHANNELS 3  Xrotation Yrotation Zrotation
								JOINT left_lowarm_twist
								{
									OFFSET	-110.7	-3.89999	13.6
									CHANNELS 3  Xrotation Yrotation Zrotation
									JOINT left_hand
									{
										OFFSET	-110.7	-3.89999	13.6
										CHANNELS 3  Xrotation Yrotation Zrotation
										JOINT left_ee
										{
											OFFSET	-80.8	-5.10001	12.1
											CHANNELS 3  Xrotation Yrotation Zrotation
											End Site
											{
												OFFSET	1	0	0
											}
										}
									}
								}
							}
						}
					}
					JOINT right_clavicle
					{
						OFFSET	43.2	22.4	-70.8
						CHANNELS 3  Xrotation Yrotation Zrotation
						JOINT right_shoulder
						{
							OFFSET	93.9	-5.79999	48.7
							CHANNELS 3  Xrotation Yrotation Zrotation
							JOINT right_elbow
							{
								OFFSET	291.4	-30.8	15.2
								CHANNELS 3  Xrotation Yrotation Zrotation
								JOINT right_lowarm_twist
								{
									OFFSET	110.7	-3.89999	13.6
									CHANNELS 3  Xrotation Yrotation Zrotation
									JOINT right_hand
									{
										OFFSET	110.7	-3.89999	13.6
										CHANNELS 3  Xrotation Yrotation Zrotation
										JOINT right_ee
										{
											OFFSET	80.8	-5.10001	12.1
											CHANNELS 3  Xrotation Yrotation Zrotation
											End Site
											{
												OFFSET	1	0	0
											}
										}
									}
								}
							}
						}
					}
				}
			}
		}
	}
	JOINT left_hip
	{
		OFFSET	-82.8	-127.5	0.300001
		CHANNELS 3  Xrotation Yrotation Zrotation
		JOINT left_knee
		{
			OFFSET	-28.2	-396.7	2.2
			CHANNELS 3  Xrotation Yrotation Zrotation
			JOINT left_ankle
			{
				OFFSET	-11.7	-411.3	35.4
				CHANNELS 3  Xrotation Yrotation Zrotation
				JOINT left_toes
				{
					OFFSET	0	-60	-88.6
					CHANNELS 3  Xrotation Yrotation Zrotation
					JOINT left_foot_ee
					{
						OFFSET	-22.5	-16.5	-42.2
						CHANNELS 3  Xrotation Yrotation Zrotation
						End Site
						{
							OFFSET	1	0	0
						}
					}
				}
			}
		}
	}
	JOINT right_hip
	{
		OFFSET	82.8	-127.5	0.300001
		CHANNELS 3  Xrotation Yrotation Zrotation
		JOINT right_knee
		{
			OFFSET	28.2	-396.7	2.2
			CHANNELS 3  Xrotation Yrotation Zrotation
			JOINT right_ankle
			{
				OFFSET	11.7	-411.3	35.4
				CHANNELS 3  Xrotation Yrotation Zrotation
				JOINT right_toes
				{
					OFFSET	0	-60	-88.6
					CHANNELS 3  Xrotation Yrotation Zrotation
					JOINT right_foot_ee
					{
						OFFSET	22.5	-16.5	-42.2
						CHANNELS 3  Xrotation Yrotation Zrotation
						End Site
						{
							OFFSET	1	0	0
						}
					}
				}
			}
		}
	}
}
MOTION
Frames: 13
Frame Time: 0.02
2645.25 700.394 -1389.93 -1.37866 58.6443 -7.43346 0.7776 0.654737 4.38505 0.788216 0.374657 4.41773 0.820392 -0.499797 4.40536 0.793376 0.201514 4.42899 -6.64784 16.8945 -4.4546 -6.49829 34.5667 -1.09275 -0.0 0.0 -0.0 2.26316 12.1364 5.22135 6.54241 -15.6615 42.933 2.9154 -55.2895 1.52727 -49.7993 -4.04829 4.67237 -2.75547 17.0333 -9.92638 -0.0 0.0 -0.0 12.6869 19.6716 -25.5411 -16.4973 -1.23504 -68.7186 0.481975 13.4285 -0.056741 57.5125 1.55754 6.87377 -6.04441 -22.6884 27.1088 0.0 0.0 0.0 -20.0835 7.43278 20.7091 -1.28678 0.0508409 0.190926 38.3586 11.8417 -4.74474 -24.8848 0.0 0.0 -0.0 0.0 -0.0 29.7277 9.0708 -7.20177 1.24198 0.0531322 0.183175 -5.51299 -4.7768 -0.817943 7.1115 -0.0 -0.0 0.0 0.0 0.0 
2630.77 701.422 -1396.04 -1.58767 59.6087 -7.29109 0.815995 0.695494 4.40673 0.8267 0.413956 4.44196 0.862062 -0.462682 4.43716 0.834679 0.243174 4.45455 -5.4966 16.6009 -5.45868 -5.12376 34.6475 -2.58487 -0.0 0.0 -0.0 2.39559 12.292 5.45261 5.0033 -15.1975 43.9376 2.85204 -54.6985 1.47537 -50.3046 -4.10753 4.69874 -2.57855 16.3994 -9.16262 -0.0 0.0 -0.0 12.8241 19.7258 -25.8556 -15.1004 -0.893238 -68.9948 0.492778 13.7182 -0.0592762 57.3691 1.54538 6.85999 -6.09838 -22.877 27.3114 0.0 0.0 0.0 -20.0807 6.8516 20.0396 -1.83686 0.0712615 0.272875 39.6992 10.1839 -4.85134 -25.607 0.0 0.0 -0.0 0.0 -0.0 29.2732 9.44737 -6.85772 0.303607 0.0126208 0.0448814 -8.26087 -3.67503 -1.23317 6.41661 -0.0 -0.0 0.0 0.0 0.0 
2612.5 704.328 -1398.55 -1.88948 59.5051 -7.05409 0.830508 0.788219 4.51929 0.841728 0.499355 4.56017 0.884987 -0.400011 4.56994 0.856002 0.325968 4.5758 -4.96207 16.2014 -5.66287 -4.50913 34.0165 -3.05214 -0.0 0.0 -0.0 2.18885 12.9324 5.1469 2.63717 -15.5918 45.5245 2.71199 -53.3281 1.36205 -50.3659 -4.11473 4.7019 -2.31328 15.6942 -7.875 -0.0 0.0 -0.0 12.8571 19.9346 -25.9178 -13.6761 -0.322782 -69.1431 0.600291 16.5609 -0.0873644 57.3146 1.54077 6.85475 -6.19141 -22.9848 27.8434 0.0 0.0 0.0 -19.8158 6.53016 19.8624 -2.82789 0.106061 0.420985 38.5523 10.7157 -4.75253 -26.5676 0.0 0.0 -0.0 0.0 -0.0 28.5718 9.79176 -6.38183 -0.412072 -0.0167483 -0.0610188 -10.2609 0.478449 -1.55009 6.17282 -0.0 -0.0 0.0 0.0 0.0 
2586.56 705.058 -1404.67 -1.59177 59.0095 -7.10915 0.830279 0.821215 4.40044 0.840886 0.539823 4.44366 0.886175 -0.337318 4.46356 0.858574 0.371131 4.46088 -3.30141 15.2359 -7.96659 -2.46433 33.851 -6.21387 -0.0 0.0 -0.0 1.79026 14.148 4.57328 -0.877729 -15.4869 46.732 2.59977 -52.1623 1.27272 -49.6133 -4.02654 4.66253 -1.66786 12.0019 -5.61376 -0.0 0.0 -0.0 12.9548 20.1523 -26.1293 -14.0353 0.205291 -68.6685 0.692713 18.9397 -0.115547 56.8305 1.50002 6.80797 -6.23132 -23.3183 27.8255 0.0 0.0 0.0 -18.3518 6.72644 18.9203 -9.48382 0.27279 1.42825 39.4073 10.8622 -4.83087 -25.431 0.0 0.0 -0.0 0.0 -0.0 26.9746 10.6244 -6.16469 -0.922223 -0.0368734 -0.136722 -11.913 4.05059 -1.8254 6.17929 -0.0 -0.0 0.0 0.0 0.0 
2569.7 708.51 -1408.33 -1.5409 59.3226 -7.5255 0.795108 0.882018 4.60509 0.80671 0.587523 4.65174 0.858305 -0.333342 4.67678 0.828027 0.408625 4.67082 -2.32917 14.7042 -9.4323 -1.22598 33.9544 -8.21664 -0.0 0.0 -0.0 1.74405 14.6369 4.533 -4.01257 -15.2681 47.6671 2.32774 -49.0601 1.0624 -48.5431 -3.90203 4.60454 -1.20371 10.5894 -3.30529 -0.0 0.0 -0.0 12.9356 20.1975 -26.0813 -13.9877 0.432697 -69.092 0.773759 20.9716 -0.143212 56.2635 1.4528 6.75274 -6.31674 -23.6829 28.082 0.0 0.0 0.0 -16.6314 6.93614 18.828 -14.7501 0.321222 2.23455 39.5349 9.57708 -4.83246 -25.0546 0.0 0.0 -0.0 0.0 -0.0 26.1342 10.0704 -5.60078 -1.28083 -0.0506156 -0.19004 -11.6132 4.10269 -1.77918 6.45918 -0.0 -0.0 0.0 0.0 0.0 
2550.79 712.54 -1413.22 -1.64753 59.3944 -7.60298 0.791292 0.927182 4.69774 0.803347 0.62672 4.74706 0.859381 -0.313358 4.77792 0.827813 0.444279 4.76755 -2.37591 14.9023 -8.67743 -1.35106 33.7348 -7.34915 -0.0 0.0 -0.0 1.50622 15.0772 4.18318 -7.01113 -15.1081 49.1628 2.10857 -46.2418 0.900373 -48.8244 -3.93466 4.62001 -0.957809 8.98507 -2.44135 -0.0 0.0 -0.0 12.6555 20.5673 -25.4037 -12.611 1.13834 -70.8937 0.806787 21.7844 -0.155252 56.2572 1.45227 6.75212 -6.4934 -23.7526 29.2105 0.0 0.0 0.0 -15.054 7.24266 18.5587 -18.6749 0.309054 2.83649 35.7505 9.58918 -4.48214 -25.0167 0.0 0.0 -0.0 0.0 -0.0 24.0577 10.4005 -4.3999 -1.23695 -0.0489521 -0.183511 -7.74551 8.37199 -1.20371 7.42072 -0.0 -0.0 0.0 0.0 0.0 
2525.97 714.458 -1420.78 -1.48859 59.3304 -8.21189 1.00835 1.06815 4.78808 1.02078 0.761672 4.84616 1.08888 -0.180254 4.9022 1.05586 0.595283 4.86934 -0.75129 14.3318 -9.76463 0.594647 33.4664 -9.17675 -0.0 0.0 -0.0 0.808392 15.7666 3.1312 -9.82584 -14.7784 51.527 1.95717 -44.1088 0.792976 -48.473 -3.89392 4.60067 -0.560554 7.07462 -0.699004 -0.0 0.0 -0.0 12.7803 21.9802 -25.5785 -11.7321 1.39681 -71.9046 0.76656 20.7933 -0.140646 56.1686 1.44495 6.74346 -6.62778 -24.5258 29.4201 0.0 0.0 0.0 -13.1468 7.72208 17.213 -25.0308 0.202107 3.80543 35.8428 8.63283 -4.4863 -24.8536 0.0 0.0 -0.0 0.0 -0.0 21.9013 10.5493 -3.58175 -1.67468 -0.065323 -0.248695 -5.16653 10.7785 -0.810223 8.24853 -0.0 -0.0 0.0 0.0 0.0 
2506.25 717.843 -1423.3 -1.70572 60.0789 -8.71626 1.06877 0.766847 4.83251 1.08164 0.458162 4.87138 1.12361 -0.481127 4.86918 1.09066 0.292961 4.88407 -0.966587 14.2373 -10.0672 0.378507 33.5463 -9.44865 -0.0 0.0 -0.0 1.01429 17.2676 3.58808 -12.3348 -14.4754 52.4282 1.72319 -40.4812 0.635438 -46.8218 -3.7041 4.50644 -0.264248 5.77981 0.684524 -0.0 0.0 -0.0 12.6625 22.3351 -25.2748 -11.1792 1.92998 -72.3985 0.788051 21.3244 -0.148368 55.3732 1.37976 6.6651 -6.70368 -23.7885 30.6159 0.0 0.0 0.0 -12.3378 12.7172 15.6383 -27.6756 0.126054 4.20416 32.9473 7.17723 -4.19603 -25.6937 0.0 0.0 -0.0 0.0 -0.0 19.7341 11.2576 -0.894685 -1.42915 -0.0562015 -0.212116 -2.29084 14.8234 -0.36698 8.21026 -0.0 -0.0 0.0 0.0 0.0 
2490.0 719.275 -1429.86 -2.41903 61.3028 -8.57672 1.15256 0.769861 4.99335 1.16631 0.450974 5.03208 1.20878 -0.511527 5.0263 1.17366 0.287662 5.04402 -1.25485 15.214 -8.31815 -0.0749801 33.944 -7.31514 -0.0 0.0 -0.0 0.609239 18.1173 3.04572 -14.6598 -14.2398 53.7866 1.53391 -37.2269 0.516646 -46.9223 -3.71558 4.51233 -0.11066 5.33568 1.50463 -0.0 0.0 -0.0 12.7672 22.9729 -25.4587 -9.26981 2.92696 -72.6636 0.744875 20.2535 -0.133043 55.6343 1.40103 6.69092 -6.71095 -24.0245 30.4476 0.0 0.0 0.0 -10.248 8.90518 14.8906 -29.4349 0.0652955 4.46732 33.9357 7.58074 -4.29623 -26.7018 0.0 0.0 -0.0 0.0 -0.0 18.4863 11.5424 0.349251 -0.911926 -0.0364737 -0.135192 1.53861 16.5115 0.247219 8.6877 -0.0 -0.0 0.0 0.0 0.0 
2475.63 718.169 -1439.62 -2.09379 60.9265 -9.40488 1.09817 0.858127 5.13826 1.1127 0.529878 5.18228 1.16398 -0.466387 5.18837 1.12661 0.357733 5.19697 -0.507737 15.2771 -8.11461 0.763281 33.8365 -7.34034 -0.0 0.0 -0.0 0.38235 18.6436 2.75498 -17.5751 -13.6033 55.2183 1.25233 -31.8129 0.356902 -45.5465 -3.55939 4.42995 0.226019 4.61444 3.41955 -0.0 0.0 -0.0 13.1621 22.9384 -26.379 -8.22959 3.64294 -72.4044 0.863917 23.1687 -0.177094 54.6281 1.3197 6.59091 -6.81434 -23.864 31.3122 0.0 0.0 0.0 -9.8458 11.0122 13.7949 -33.4146 -0.101793 5.05504 34.1707 7.50652 -4.3194 -27.5146 0.0 0.0 -0.0 0.0 -0.0 16.3372 11.4171 1.08817 -0.800504 -0.0321328 -0.118644 4.88401 17.3348 0.781839 9.29189 -0.0 -0.0 0.0 0.0 0.0 
2456.77 719.642 -1445.93 -1.03579 61.3736 -10.8382 0.961056 0.963496 5.33696 0.976678 0.622444 5.38725 1.03955 -0.426041 5.40628 0.999045 0.431844 5.40582 -2.13428 16.1592 -5.8668 -1.25854 33.8269 -4.23057 -0.0 0.0 -0.0 0.279218 18.948 2.63174 -19.3596 -13.2896 56.3155 1.114 -28.8909 0.286976 -44.617 -3.45501 4.37219 0.395114 4.8748 4.64012 -0.0 0.0 -0.0 13.528 23.083 -27.2192 -6.42937 4.82192 -72.6393 0.932265 24.7879 -0.204873 53.8354 1.25686 6.51112 -6.8352 -23.8016 31.5165 0.0 0.0 0.0 -8.91849 11.9458 12.6343 -36.0647 -0.235573 5.43952 35.3256 7.30822 -4.43204 -28.5844 0.0 0.0 -0.0 0.0 -0.0 14.4957 11.2548 1.61062 -1.48388 -0.0582486 -0.220267 7.89056 17.3865 1.25028 9.55487 -0.0 -0.0 0.0 0.0 0.0 
2442.63 715.743 -1455.36 1.0379 62.1922 -12.5087 1.00386 0.851501 5.13112 1.01834 0.523717 5.17475 1.06937 -0.479597 5.17901 1.03212 0.343216 5.1898 -2.56623 16.7458 -4.38363 -1.83211 33.8028 -2.42092 -0.0 0.0 -0.0 -0.0931055 19.4359 2.13072 -21.4371 -12.8923 57.4295 0.92521 -24.6227 0.201924 -43.9388 -3.37946 4.32898 0.548979 5.2884 5.8214 -0.0 0.0 -0.0 13.9374 24.3232 -28.0514 -4.8646 5.70065 -72.4174 0.957821 25.3828 -0.215708 53.688 1.2453 6.49619 -6.67001 -23.7443 30.4247 0.0 0.0 0.0 -7.42212 13.2607 9.73328 -40.2175 -0.480661 6.0287 36.0786 6.96652 -4.50354 -29.5112 0.0 0.0 -0.0 0.0 -0.0 11.7691 11.0794 2.3171 -1.95731 -0.0756285 -0.290845 10.9459 18.1439 1.72453 9.82044 -0.0 -0.0 0.0 0.0 0.0 
2422.06 715.838 -1458.07 1.64738 62.975 -12.685 0.90517 0.828326 5.02265 0.919055 0.507464 5.06503 0.967858 -0.483479 5.06737 0.932188 0.321821 5.08016 -1.30868 17.052 -5.65951 -0.246006 35.1828 -4.20244 -0.0 0.0 -0.0 -0.0614931 19.4404 2.1781 -23.5829 -12.5743 58.2167 0.836346 -22.5041 0.166394 -42.6839 -3.24101 4.24669 1.10863 4.6176 9.26706 -0.0 0.0 -0.0 13.5172 25.2712 -26.962 -4.48043 6.17204 -73.2293 0.984483 25.9972 -0.227266 54.3548 1.29791 6.56349 -5.8267 -24.3438 24.3246 0.0 0.0 0.0 -6.15891 20.2088 5.65759 -43.3348 -0.692438 6.45869 33.3338 -0.18567 -4.25661 -31.1016 0.0 0.0 -0.0 0.0 -0.0 9.0802 11.9998 3.06217 -1.50774 -0.0591381 -0.223821 15.5487 23.3527 2.51976 6.51 -0.0 -0.0 0.0 0.0 0.0 
